<svg width="49" height="37" viewBox="0 0 49 37" fill="none" xmlns="http://www.w3.org/2000/svg">
<path d="M48.0717 12.2602C48.4449 11.9635 49 12.241 49 12.71V32.2812C49 34.8174 46.9424 36.875 44.4062 36.875H4.59375C2.05762 36.875 0 34.8174 0 32.2812V12.7195C0 12.241 0.545508 11.973 0.92832 12.2697C3.07207 13.935 5.91445 16.05 15.6762 23.1416C17.6955 24.6154 21.1025 27.7162 24.5 27.6971C27.9166 27.7258 31.3906 24.558 33.3334 23.1416C43.0951 16.05 45.9279 13.9254 48.0717 12.2602ZM24.5 24.625C26.7203 24.6633 29.9168 21.8305 31.5246 20.6629C44.2244 11.4467 45.191 10.6428 48.1195 8.3459C48.6746 7.91523 49 7.24531 49 6.53711V4.71875C49 2.18262 46.9424 0.125 44.4062 0.125H4.59375C2.05762 0.125 0 2.18262 0 4.71875V6.53711C0 7.24531 0.325391 7.90566 0.880469 8.3459C3.80898 10.6332 4.77559 11.4467 17.4754 20.6629C19.0832 21.8305 22.2797 24.6633 24.5 24.625Z" fill="white"/>
</svg>
